<svg width="1200" height="800" viewBox="0 0 1200 800" fill="none" xmlns="http://www.w3.org/2000/svg">
  <!-- Background -->
  <rect width="1200" height="800" fill="#0B1220"/>
  <!-- Window chrome -->
  <rect x="0" y="0" width="1200" height="36" fill="#0F172A"/>
  <circle cx="20" cy="18" r="6" fill="#FF5F57"/>
  <circle cx="40" cy="18" r="6" fill="#FEBC2E"/>
  <circle cx="60" cy="18" r="6" fill="#28C840"/>
  <text x="540" y="23" fill="#4B5563" font-size="12" font-family="monospace" text-anchor="middle">angel — autonomous agent framework</text>

  <!-- Left sidebar -->
  <rect x="0" y="36" width="220" height="764" fill="#0F172A"/>
  <rect x="0" y="36" width="220" height="764" fill="url(#sideGrad)"/>
  <defs>
    <linearGradient id="sideGrad" x1="0" y1="36" x2="220" y2="36" gradientUnits="userSpaceOnUse">
      <stop offset="0%" stop-color="#0F172A"/>
      <stop offset="100%" stop-color="#111827"/>
    </linearGradient>
  </defs>
  <rect x="219" y="36" width="1" height="764" fill="#1E3A5F" opacity="0.6"/>

  <!-- Sidebar logo -->
  <text x="20" y="72" fill="#DBEAFE" font-size="22" font-family="monospace" font-weight="bold">⟳ angel</text>
  <text x="20" y="92" fill="#3B82F6" font-size="11" font-family="monospace">autonomous ai agent</text>

  <!-- Sidebar menu items -->
  <rect x="10" y="112" width="200" height="40" rx="8" fill="#1D4ED8"/>
  <text x="38" y="137" fill="#FFFFFF" font-size="13" font-family="monospace">▶  agent loop</text>
  <rect x="10" y="160" width="200" height="40" rx="8" fill="transparent"/>
  <text x="38" y="185" fill="#6B7280" font-size="13" font-family="monospace">◈  memory</text>
  <rect x="10" y="208" width="200" height="40" rx="8" fill="transparent"/>
  <text x="38" y="233" fill="#6B7280" font-size="13" font-family="monospace">⚙  tools</text>
  <rect x="10" y="256" width="200" height="40" rx="8" fill="transparent"/>
  <text x="38" y="281" fill="#6B7280" font-size="13" font-family="monospace">⬦  queue</text>
  <rect x="10" y="304" width="200" height="40" rx="8" fill="transparent"/>
  <text x="38" y="329" fill="#6B7280" font-size="13" font-family="monospace">◉  logs</text>

  <!-- Sidebar status -->
  <rect x="10" y="700" width="200" height="68" rx="10" fill="#0B1220"/>
  <circle cx="28" cy="722" r="5" fill="#22C55E"/>
  <text x="40" y="727" fill="#86EFAC" font-size="12" font-family="monospace">agent running</text>
  <text x="20" y="748" fill="#374151" font-size="11" font-family="monospace">uptime 00:14:32</text>
  <text x="20" y="762" fill="#374151" font-size="11" font-family="monospace">tasks completed: 3</text>

  <!-- Main content area -->
  <!-- Top status bar -->
  <rect x="228" y="44" width="960" height="48" rx="10" fill="#111827" stroke="#1E3A5F" stroke-width="1"/>
  <text x="248" y="73" fill="#9CA3AF" font-size="12" font-family="monospace">task:</text>
  <text x="285" y="73" fill="#DBEAFE" font-size="12" font-family="monospace">"Analizza repo, scrivi report, salva in memoria"</text>
  <circle cx="1140" cy="68" r="8" fill="#1D4ED8"/>
  <text x="1136" y="73" fill="white" font-size="10" font-family="monospace">▶</text>

  <!-- Terminal panel -->
  <rect x="228" y="102" width="590" height="440" rx="12" fill="#0A0F1A" stroke="#1E3A5F" stroke-width="1"/>
  <rect x="228" y="102" width="590" height="32" rx="12" fill="#111827"/>
  <rect x="228" y="122" width="590" height="12" fill="#111827"/>
  <text x="248" y="122" fill="#4B5563" font-size="11" font-family="monospace">terminal · agent output</text>
  <circle cx="786" cy="118" r="5" fill="#374151"/>
  <circle cx="800" cy="118" r="5" fill="#374151"/>
  <circle cx="814" cy="118" r="5" fill="#374151"/>

  <!-- Terminal lines -->
  <text x="244" y="158" fill="#6B7280" font-size="11" font-family="monospace">$</text>
  <text x="258" y="158" fill="#D1D5DB" font-size="11" font-family="monospace">python -m angel run --task "Analizza repo"</text>

  <text x="244" y="180" fill="#3B82F6" font-size="11" font-family="monospace">[planner]</text>
  <text x="318" y="180" fill="#9CA3AF" font-size="11" font-family="monospace">decomposing task into 4 steps...</text>

  <text x="244" y="200" fill="#3B82F6" font-size="11" font-family="monospace">[step 1/4]</text>
  <text x="322" y="200" fill="#D1D5DB" font-size="11" font-family="monospace">tool:shell → git log --oneline -20</text>

  <rect x="244" y="210" width="550" height="56" rx="6" fill="#0F172A"/>
  <text x="258" y="228" fill="#86EFAC" font-size="10" font-family="monospace">a3f2c1d feat: add memory persistence layer</text>
  <text x="258" y="244" fill="#86EFAC" font-size="10" font-family="monospace">b7e9a2f fix: tool timeout handling in shell executor</text>
  <text x="258" y="260" fill="#86EFAC" font-size="10" font-family="monospace">c4d81e3 refactor: agent loop retry logic</text>

  <text x="244" y="286" fill="#3B82F6" font-size="11" font-family="monospace">[step 2/4]</text>
  <text x="322" y="286" fill="#D1D5DB" font-size="11" font-family="monospace">tool:file → read README.md</text>
  <text x="244" y="306" fill="#86EFAC" font-size="11" font-family="monospace">[ok]</text>
  <text x="270" y="306" fill="#6B7280" font-size="11" font-family="monospace">2.4kb read in 12ms</text>

  <text x="244" y="328" fill="#3B82F6" font-size="11" font-family="monospace">[step 3/4]</text>
  <text x="322" y="328" fill="#D1D5DB" font-size="11" font-family="monospace">tool:claude → summarize + insights</text>
  <text x="244" y="348" fill="#A78BFA" font-size="11" font-family="monospace">[claude]</text>
  <text x="304" y="348" fill="#9CA3AF" font-size="11" font-family="monospace">thinking...</text>
  <rect x="244" y="358" width="550" height="72" rx="6" fill="#1E1B4B"/>
  <text x="258" y="378" fill="#C4B5FD" font-size="10" font-family="monospace">Il repository implementa un agent loop con 4 strumenti:</text>
  <text x="258" y="394" fill="#C4B5FD" font-size="10" font-family="monospace">shell, file, browser, search. Memoria divisa in</text>
  <text x="258" y="410" fill="#C4B5FD" font-size="10" font-family="monospace">short-term (dict) e long-term (SQLite). Pattern OODA.</text>
  <text x="258" y="424" fill="#C4B5FD" font-size="10" font-family="monospace">Prossime features: parallelismo tool, caching.</text>

  <text x="244" y="452" fill="#3B82F6" font-size="11" font-family="monospace">[step 4/4]</text>
  <text x="322" y="452" fill="#D1D5DB" font-size="11" font-family="monospace">tool:memory → persist summary</text>
  <text x="244" y="472" fill="#86EFAC" font-size="11" font-family="monospace">[ok]</text>
  <text x="270" y="472" fill="#6B7280" font-size="11" font-family="monospace">saved to long_term/repo_analysis_20260409.md</text>

  <text x="244" y="496" fill="#F472B6" font-size="11" font-family="monospace">[queue]</text>
  <text x="298" y="496" fill="#D1D5DB" font-size="11" font-family="monospace">dispatching follow-up: write tests for tool:shell</text>

  <text x="244" y="520" fill="#22C55E" font-size="11" font-family="monospace">✓ task completed in 8.3s · tokens: 1,842</text>
  <text x="244" y="536" fill="#374151" font-size="11" font-family="monospace">$</text>
  <rect x="244" y="529" width="7" height="13" fill="#3B82F6" opacity="0.8"/>

  <!-- Right panels -->
  <!-- Memory panel -->
  <rect x="828" y="102" width="360" height="205" rx="12" fill="#0F172A" stroke="#1E3A5F" stroke-width="1"/>
  <text x="848" y="128" fill="#93C5FD" font-size="13" font-family="monospace" font-weight="bold">◈ memory</text>
  <rect x="848" y="140" width="320" height="1" fill="#1E3A5F"/>

  <text x="848" y="162" fill="#6B7280" font-size="10" font-family="monospace">SHORT TERM</text>
  <rect x="848" y="170" width="320" height="30" rx="6" fill="#111827"/>
  <text x="860" y="190" fill="#D1D5DB" font-size="11" font-family="monospace">current_task: "Analizza repo"</text>
  <rect x="848" y="208" width="320" height="30" rx="6" fill="#111827"/>
  <text x="860" y="228" fill="#D1D5DB" font-size="11" font-family="monospace">step_index: 4 · status: done</text>

  <text x="848" y="258" fill="#6B7280" font-size="10" font-family="monospace">LONG TERM (3 entries)</text>
  <rect x="848" y="266" width="320" height="30" rx="6" fill="#111827"/>
  <text x="860" y="281" fill="#86EFAC" font-size="10" font-family="monospace">repo_analysis_20260409.md</text>
  <text x="1090" y="281" fill="#374151" font-size="10" font-family="monospace">2.1kb</text>
  <rect x="848" y="298" width="320" height="1" fill="#1E3A5F" opacity="0.5"/>

  <!-- Tools panel -->
  <rect x="828" y="316" width="360" height="226" rx="12" fill="#0F172A" stroke="#1E3A5F" stroke-width="1"/>
  <text x="848" y="342" fill="#93C5FD" font-size="13" font-family="monospace" font-weight="bold">⚙ tools</text>
  <rect x="848" y="354" width="320" height="1" fill="#1E3A5F"/>

  <rect x="848" y="366" width="150" height="52" rx="8" fill="#0B2240"/>
  <text x="864" y="388" fill="#DBEAFE" font-size="12" font-family="monospace">shell</text>
  <text x="864" y="406" fill="#3B82F6" font-size="10" font-family="monospace">42 calls · 0 err</text>

  <rect x="1010" y="366" width="150" height="52" rx="8" fill="#0B2240"/>
  <text x="1026" y="388" fill="#DBEAFE" font-size="12" font-family="monospace">file</text>
  <text x="1026" y="406" fill="#3B82F6" font-size="10" font-family="monospace">18 calls · 0 err</text>

  <rect x="848" y="428" width="150" height="52" rx="8" fill="#0B2240"/>
  <text x="864" y="450" fill="#DBEAFE" font-size="12" font-family="monospace">browser</text>
  <text x="864" y="468" fill="#3B82F6" font-size="10" font-family="monospace">7 calls · 1 err</text>

  <rect x="1010" y="428" width="150" height="52" rx="8" fill="#0B2240"/>
  <text x="1026" y="450" fill="#DBEAFE" font-size="12" font-family="monospace">search</text>
  <text x="1026" y="468" fill="#3B82F6" font-size="10" font-family="monospace">12 calls · 0 err</text>

  <text x="848" y="510" fill="#6B7280" font-size="10" font-family="monospace">avg latency: shell 230ms · file 14ms · browser 1.2s</text>
  <text x="848" y="528" fill="#6B7280" font-size="10" font-family="monospace">python sandbox: active · timeout 30s</text>

  <!-- Bottom queue panel -->
  <rect x="228" y="552" width="960" height="200" rx="12" fill="#0F172A" stroke="#1E3A5F" stroke-width="1"/>
  <text x="248" y="578" fill="#93C5FD" font-size="13" font-family="monospace" font-weight="bold">⬦ task queue</text>
  <rect x="248" y="588" width="920" height="1" fill="#1E3A5F"/>

  <!-- Queue items -->
  <rect x="248" y="600" width="280" height="60" rx="8" fill="#0B1220" stroke="#1D4ED8" stroke-width="1"/>
  <rect x="248" y="600" width="5" height="60" rx="2" fill="#1D4ED8"/>
  <text x="262" y="620" fill="#DBEAFE" font-size="11" font-family="monospace" font-weight="bold">✓ analizza repo</text>
  <text x="262" y="638" fill="#374151" font-size="10" font-family="monospace">completed · 8.3s · 1,842 tok</text>
  <text x="262" y="652" fill="#22C55E" font-size="10" font-family="monospace">done</text>

  <rect x="540" y="600" width="280" height="60" rx="8" fill="#0B1220" stroke="#D97706" stroke-width="1"/>
  <rect x="540" y="600" width="5" height="60" rx="2" fill="#D97706"/>
  <text x="554" y="620" fill="#FDE68A" font-size="11" font-family="monospace" font-weight="bold">⟳ scrivi test tool:shell</text>
  <text x="554" y="638" fill="#374151" font-size="10" font-family="monospace">queued · dispatched from step 4</text>
  <text x="554" y="652" fill="#D97706" font-size="10" font-family="monospace">pending</text>

  <rect x="832" y="600" width="280" height="60" rx="8" fill="#0B1220" stroke="#374151" stroke-width="1"/>
  <rect x="832" y="600" width="5" height="60" rx="2" fill="#374151"/>
  <text x="846" y="620" fill="#6B7280" font-size="11" font-family="monospace" font-weight="bold">◌ update CHANGELOG.md</text>
  <text x="846" y="638" fill="#374151" font-size="10" font-family="monospace">waiting · depends on task #2</text>
  <text x="846" y="652" fill="#374151" font-size="10" font-family="monospace">idle</text>

  <!-- Legend row -->
  <text x="248" y="720" fill="#374151" font-size="10" font-family="monospace">loop: planner → tool_call → observe → memory_write → replan</text>
  <text x="248" y="738" fill="#374151" font-size="10" font-family="monospace">model: claude-sonnet-4-6 · sdk: anthropic@0.52.0 · env: python 3.12</text>
</svg>
