<svg width="1200" height="800" viewBox="0 0 1200 800" fill="none" xmlns="http://www.w3.org/2000/svg">
  <rect width="1200" height="800" rx="32" fill="#0B1220"/>
  <rect x="24" y="24" width="1152" height="752" rx="24" fill="#111827" stroke="#1E3A8A"/>
  <rect x="48" y="48" width="240" height="704" rx="20" fill="#0F172A" stroke="#1E40AF"/>
  <text x="84" y="96" fill="#DBEAFE" font-size="34" font-family="Arial">Angel</text>
  <text x="84" y="128" fill="#60A5FA" font-size="16" font-family="Arial">autonomous AI agent</text>
  <rect x="72" y="170" width="192" height="56" rx="16" fill="#1D4ED8"/>
  <text x="102" y="205" fill="white" font-size="18" font-family="Arial">Agent Loop</text>
  <rect x="72" y="244" width="192" height="56" rx="16" fill="#172554"/>
  <text x="102" y="279" fill="#BFDBFE" font-size="18" font-family="Arial">Memory</text>
  <rect x="72" y="318" width="192" height="56" rx="16" fill="#172554"/>
  <text x="102" y="353" fill="#BFDBFE" font-size="18" font-family="Arial">Tools</text>
  <rect x="72" y="392" width="192" height="56" rx="16" fill="#172554"/>
  <text x="102" y="427" fill="#BFDBFE" font-size="18" font-family="Arial">Queue</text>

  <rect x="320" y="48" width="832" height="120" rx="22" fill="#0F172A" stroke="#1D4ED8"/>
  <text x="356" y="92" fill="#E5F0FF" font-size="28" font-family="Arial">Task orchestration overview</text>
  <text x="356" y="128" fill="#93C5FD" font-size="18" font-family="Arial">planning → tool use → observation → memory persistence</text>
  <rect x="356" y="144" width="120" height="10" rx="5" fill="#1D4ED8"/>
  <rect x="488" y="144" width="92" height="10" rx="5" fill="#60A5FA"/>
  <rect x="592" y="144" width="144" height="10" rx="5" fill="#93C5FD"/>

  <rect x="320" y="192" width="398" height="256" rx="22" fill="#0F172A" stroke="#1E40AF"/>
  <text x="352" y="234" fill="#E5F0FF" font-size="24" font-family="Arial">Runtime console</text>
  <rect x="352" y="258" width="334" height="160" rx="16" fill="#020617" stroke="#1E3A8A"/>
  <text x="372" y="290" fill="#60A5FA" font-size="16" font-family="Courier New">[planner] break task into steps</text>
  <text x="372" y="320" fill="#BFDBFE" font-size="16" font-family="Courier New">[tool:shell] run diagnostics</text>
  <text x="372" y="350" fill="#86EFAC" font-size="16" font-family="Courier New">[memory] save result summary</text>
  <text x="372" y="380" fill="#F9A8D4" font-size="16" font-family="Courier New">[queue] dispatch worker job</text>

  <rect x="754" y="192" width="398" height="256" rx="22" fill="#0F172A" stroke="#1E40AF"/>
  <text x="786" y="234" fill="#E5F0FF" font-size="24" font-family="Arial">Architecture modules</text>
  <rect x="786" y="258" width="142" height="62" rx="14" fill="#1D4ED8"/>
  <rect x="944" y="258" width="142" height="62" rx="14" fill="#2563EB"/>
  <rect x="786" y="338" width="142" height="62" rx="14" fill="#1E3A8A"/>
  <rect x="944" y="338" width="142" height="62" rx="14" fill="#172554"/>
  <text x="820" y="296" fill="white" font-size="18" font-family="Arial">Planner</text>
  <text x="980" y="296" fill="white" font-size="18" font-family="Arial">Tools</text>
  <text x="824" y="376" fill="#DBEAFE" font-size="18" font-family="Arial">Memory</text>
  <text x="970" y="376" fill="#DBEAFE" font-size="18" font-family="Arial">Workers</text>

  <rect x="320" y="472" width="832" height="280" rx="22" fill="#0F172A" stroke="#1D4ED8"/>
  <text x="356" y="514" fill="#E5F0FF" font-size="24" font-family="Arial">Data flow</text>
  <circle cx="420" cy="620" r="48" fill="#1D4ED8"/>
  <circle cx="620" cy="620" r="48" fill="#2563EB"/>
  <circle cx="820" cy="620" r="48" fill="#60A5FA"/>
  <circle cx="1020" cy="620" r="48" fill="#93C5FD"/>
  <text x="392" y="626" fill="white" font-size="16" font-family="Arial">Prompt</text>
  <text x="594" y="626" fill="white" font-size="16" font-family="Arial">Plan</text>
  <text x="790" y="626" fill="#0B1220" font-size="16" font-family="Arial">Tools</text>
  <text x="994" y="626" fill="#0B1220" font-size="16" font-family="Arial">Memory</text>
  <path d="M468 620H572" stroke="#60A5FA" stroke-width="8" stroke-linecap="round"/>
  <path d="M668 620H772" stroke="#60A5FA" stroke-width="8" stroke-linecap="round"/>
  <path d="M868 620H972" stroke="#60A5FA" stroke-width="8" stroke-linecap="round"/>
</svg>
