<svg width="1200" height="800" viewBox="0 0 1200 800" fill="none" xmlns="http://www.w3.org/2000/svg">
  <defs>
    <linearGradient id="heroBg" x1="72" y1="148" x2="72" y2="340" gradientUnits="userSpaceOnUse">
      <stop offset="0%" stop-color="#1E40AF"/>
      <stop offset="100%" stop-color="#1D4ED8"/>
    </linearGradient>
  </defs>

  <!-- Page background -->
  <rect width="1200" height="800" fill="#F0F7FF"/>

  <!-- Nav bar -->
  <rect x="0" y="0" width="1200" height="60" fill="#FFFFFF" stroke="#DBEAFE" stroke-width="1"/>
  <text x="32" y="26" fill="#1E40AF" font-size="20" font-family="Georgia" font-style="italic">EthnicalBox</text>
  <text x="32" y="44" fill="#60A5FA" font-size="10" font-family="Arial" letter-spacing="1">SCOPRI · GUSTA · CONDIVIDI</text>
  <text x="680" y="36" fill="#334155" font-size="13" font-family="Arial">Esplora</text>
  <text x="760" y="36" fill="#334155" font-size="13" font-family="Arial">Ristoranti</text>
  <text x="860" y="36" fill="#334155" font-size="13" font-family="Arial">Cucine</text>
  <text x="950" y="36" fill="#334155" font-size="13" font-family="Arial">Preferiti ♥</text>
  <rect x="1080" y="14" width="96" height="32" rx="16" fill="#1E40AF"/>
  <text x="1104" y="34" fill="white" font-size="12" font-family="Arial">Accedi</text>

  <!-- Hero banner -->
  <rect x="24" y="76" width="1152" height="200" rx="24" fill="url(#heroBg)"/>
  <!-- Subtle pattern overlay -->
  <circle cx="950" cy="130" r="80" fill="#FFFFFF" opacity="0.04"/>
  <circle cx="1050" cy="190" r="60" fill="#FFFFFF" opacity="0.04"/>

  <text x="60" y="118" fill="#BAE6FD" font-size="11" font-family="Arial" letter-spacing="4">SCOPRI · GUSTA · CONDIVIDI</text>
  <text x="60" y="166" fill="#FFFFFF" font-size="52" font-family="Georgia">Cibo &amp; Cultura</text>
  <text x="60" y="200" fill="#93C5FD" font-size="18" font-family="Arial">Ristoranti etnici selezionati — dalla tua città al mondo</text>
  <text x="60" y="228" fill="#DBEAFE" font-size="14" font-family="Arial">Milano · Roma · Napoli · Torino · Bologna</text>
  <rect x="60" y="244" width="180" height="44" rx="22" fill="#FFFFFF"/>
  <text x="96" y="271" fill="#1E40AF" font-size="14" font-family="Arial" font-weight="bold">Esplora ora →</text>
  <rect x="256" y="244" width="160" height="44" rx="22" fill="rgba(255,255,255,0.15)" stroke="rgba(255,255,255,0.4)" stroke-width="1.5"/>
  <text x="286" y="271" fill="#DBEAFE" font-size="14" font-family="Arial">Vicino a me</text>

  <!-- Search bar -->
  <rect x="24" y="294" width="1152" height="52" rx="26" fill="#FFFFFF" stroke="#BFDBFE" stroke-width="1.5"/>
  <text x="56" y="325" fill="#94A3B8" font-size="13" font-family="Arial">🔍  Cerca per cucina, ristorante, piatto, quartiere...</text>
  <rect x="1048" y="304" width="112" height="32" rx="16" fill="#3B82F6"/>
  <text x="1076" y="325" fill="white" font-size="12" font-family="Arial">Cerca</text>

  <!-- Category chips -->
  <text x="32" y="376" fill="#1E40AF" font-size="11" font-family="Arial" letter-spacing="3" font-weight="bold">CATEGORIE</text>
  <rect x="24" y="386" width="136" height="40" rx="20" fill="#1E40AF"/>
  <text x="56" y="411" fill="#FFFFFF" font-size="13" font-family="Arial">🍜 Asiatico</text>
  <rect x="172" y="386" width="148" height="40" rx="20" fill="#DBEAFE" stroke="#93C5FD" stroke-width="1"/>
  <text x="198" y="411" fill="#1D4ED8" font-size="13" font-family="Arial">🌮 Messicano</text>
  <rect x="332" y="386" width="134" height="40" rx="20" fill="#DBEAFE" stroke="#93C5FD" stroke-width="1"/>
  <text x="361" y="411" fill="#1D4ED8" font-size="13" font-family="Arial">🍕 Italiano</text>
  <rect x="478" y="386" width="152" height="40" rx="20" fill="#DBEAFE" stroke="#93C5FD" stroke-width="1"/>
  <text x="494" y="411" fill="#1D4ED8" font-size="13" font-family="Arial">🫕 Medioriente</text>
  <rect x="642" y="386" width="150" height="40" rx="20" fill="#DBEAFE" stroke="#93C5FD" stroke-width="1"/>
  <text x="664" y="411" fill="#1D4ED8" font-size="13" font-family="Arial">🍣 Giapponese</text>
  <rect x="804" y="386" width="134" height="40" rx="20" fill="#DBEAFE" stroke="#93C5FD" stroke-width="1"/>
  <text x="830" y="411" fill="#1D4ED8" font-size="13" font-family="Arial">🥘 Indiano</text>
  <rect x="950" y="386" width="130" height="40" rx="20" fill="#DBEAFE" stroke="#93C5FD" stroke-width="1"/>
  <text x="978" y="411" fill="#1D4ED8" font-size="13" font-family="Arial">🥗 Altro</text>

  <!-- Section heading -->
  <text x="32" y="460" fill="#1E40AF" font-size="11" font-family="Arial" letter-spacing="3" font-weight="bold">RISTORANTI IN EVIDENZA</text>

  <!-- Restaurant Card 1 -->
  <rect x="24" y="472" width="356" height="280" rx="20" fill="#FFFFFF" stroke="#DBEAFE" stroke-width="1.5"/>
  <rect x="24" y="472" width="356" height="132" rx="20" fill="#BFDBFE"/>
  <rect x="24" y="564" width="356" height="40" fill="#BFDBFE"/>
  <text x="166" y="548" fill="#1E3A8A" font-size="52" font-family="Arial">🍜</text>
  <text x="44" y="636" fill="#0F1E3C" font-size="16" font-family="Georgia" font-weight="bold">Dragon Noodle House</text>
  <text x="44" y="658" fill="#64748B" font-size="12" font-family="Arial">Cucina cinese · Via Tortona 12, Milano</text>
  <rect x="44" y="672" width="66" height="22" rx="11" fill="#DBEAFE"/>
  <text x="54" y="687" fill="#1D4ED8" font-size="11" font-family="Arial">★ 4.8 (142)</text>
  <rect x="120" y="672" width="72" height="22" rx="11" fill="#F0FDF4"/>
  <text x="132" y="687" fill="#166534" font-size="11" font-family="Arial">€€ · Aperto</text>
  <text x="44" y="712" fill="#94A3B8" font-size="11" font-family="Arial">Ramen · Dim Sum · Noodles · Dumplings</text>
  <rect x="272" y="698" width="92" height="32" rx="16" fill="#EFF6FF" stroke="#BFDBFE" stroke-width="1"/>
  <text x="292" y="718" fill="#1D4ED8" font-size="12" font-family="Arial">Prenota →</text>

  <!-- Restaurant Card 2 -->
  <rect x="396" y="472" width="356" height="280" rx="20" fill="#FFFFFF" stroke="#DBEAFE" stroke-width="1.5"/>
  <rect x="396" y="472" width="356" height="132" rx="20" fill="#FEF3C7"/>
  <rect x="396" y="564" width="356" height="40" fill="#FEF3C7"/>
  <text x="538" y="548" fill="#92400E" font-size="52" font-family="Arial">🌮</text>
  <text x="416" y="636" fill="#0F1E3C" font-size="16" font-family="Georgia" font-weight="bold">El Rancho Taqueria</text>
  <text x="416" y="658" fill="#64748B" font-size="12" font-family="Arial">Cucina messicana · Corso Como 5, Milano</text>
  <rect x="416" y="672" width="66" height="22" rx="11" fill="#DBEAFE"/>
  <text x="426" y="687" fill="#1D4ED8" font-size="11" font-family="Arial">★ 4.6 (89)</text>
  <rect x="492" y="672" width="72" height="22" rx="11" fill="#F0FDF4"/>
  <text x="504" y="687" fill="#166534" font-size="11" font-family="Arial">€ · Aperto</text>
  <text x="416" y="712" fill="#94A3B8" font-size="11" font-family="Arial">Tacos · Burritos · Guacamole · Margarita</text>
  <rect x="644" y="698" width="92" height="32" rx="16" fill="#EFF6FF" stroke="#BFDBFE" stroke-width="1"/>
  <text x="664" y="718" fill="#1D4ED8" font-size="12" font-family="Arial">Prenota →</text>

  <!-- Restaurant Card 3 -->
  <rect x="768" y="472" width="356" height="280" rx="20" fill="#FFFFFF" stroke="#DBEAFE" stroke-width="1.5"/>
  <rect x="768" y="472" width="356" height="132" rx="20" fill="#FCE7F3"/>
  <rect x="768" y="564" width="356" height="40" fill="#FCE7F3"/>
  <text x="910" y="548" fill="#831843" font-size="52" font-family="Arial">🫕</text>
  <text x="788" y="636" fill="#0F1E3C" font-size="16" font-family="Georgia" font-weight="bold">Beirut Kitchen</text>
  <text x="788" y="658" fill="#64748B" font-size="12" font-family="Arial">Cucina libanese · Via Savona 8, Milano</text>
  <rect x="788" y="672" width="66" height="22" rx="11" fill="#DBEAFE"/>
  <text x="798" y="687" fill="#1D4ED8" font-size="11" font-family="Arial">★ 4.9 (211)</text>
  <rect x="864" y="672" width="72" height="22" rx="11" fill="#F0FDF4"/>
  <text x="876" y="687" fill="#166534" font-size="11" font-family="Arial">€€ · Aperto</text>
  <text x="788" y="712" fill="#94A3B8" font-size="11" font-family="Arial">Hummus · Falafel · Shawarma · Mezze</text>
  <rect x="1016" y="698" width="92" height="32" rx="16" fill="#EFF6FF" stroke="#BFDBFE" stroke-width="1"/>
  <text x="1036" y="718" fill="#1D4ED8" font-size="12" font-family="Arial">Prenota →</text>

  <!-- Footer -->
  <rect x="0" y="768" width="1200" height="32" fill="#F1F5F9"/>
  <text x="32" y="788" fill="#94A3B8" font-size="11" font-family="Arial">© 2026 EthnicalBox · React + Vite · Deploy su Vercel</text>
  <text x="900" y="788" fill="#94A3B8" font-size="11" font-family="Arial">📍 147 ristoranti · 12 cucine</text>
</svg>
