<svg width="1200" height="800" viewBox="0 0 1200 800" fill="none" xmlns="http://www.w3.org/2000/svg">
  <rect width="1200" height="800" rx="32" fill="#F0F7FF"/>
  <rect x="28" y="28" width="1144" height="744" rx="28" fill="#F8FBFF" stroke="#DBEAFE" stroke-width="2"/>

  <!-- Nav bar -->
  <rect x="56" y="56" width="1088" height="64" rx="18" fill="rgba(255,255,255,0.85)" stroke="#BFDBFE"/>
  <text x="96" y="96" fill="#1E40AF" font-size="24" font-family="Georgia" font-style="italic">EthnicalBox</text>
  <text x="820" y="96" fill="#1D4ED8" font-size="15" font-family="Arial">Esplora · Ristoranti · Cucine · Preferiti</text>

  <!-- Hero / Landing strip -->
  <rect x="72" y="154" width="1036" height="180" rx="22" fill="#1E40AF"/>
  <text x="110" y="210" fill="#BAE6FD" font-size="14" font-family="Arial" letter-spacing="3">SCOPRI · GUSTA · CONDIVIDI</text>
  <text x="110" y="268" fill="#FFFFFF" font-size="54" font-family="Georgia">Cibo &amp; Cultura</text>
  <text x="110" y="314" fill="#93C5FD" font-size="20" font-family="Arial">Ristoranti etnici selezionati — dalla tua città al mondo</text>
  <rect x="860" y="220" width="190" height="48" rx="24" fill="#3B82F6"/>
  <text x="912" y="252" fill="#FFFFFF" font-size="16" font-family="Arial">Esplora ora →</text>

  <!-- Category chips row -->
  <text x="90" y="386" fill="#1E40AF" font-size="13" font-family="Arial" letter-spacing="2">CATEGORIE</text>
  <rect x="72" y="396" width="130" height="40" rx="20" fill="#1E40AF"/>
  <text x="112" y="422" fill="#FFFFFF" font-size="14" font-family="Arial">🍜 Asiatico</text>
  <rect x="214" y="396" width="140" height="40" rx="20" fill="#DBEAFE" stroke="#93C5FD"/>
  <text x="250" y="422" fill="#1D4ED8" font-size="14" font-family="Arial">🌮 Messicano</text>
  <rect x="366" y="396" width="130" height="40" rx="20" fill="#DBEAFE" stroke="#93C5FD"/>
  <text x="399" y="422" fill="#1D4ED8" font-size="14" font-family="Arial">🍕 Italiano</text>
  <rect x="508" y="396" width="130" height="40" rx="20" fill="#DBEAFE" stroke="#93C5FD"/>
  <text x="537" y="422" fill="#1D4ED8" font-size="14" font-family="Arial">🫕 Medioriente</text>
  <rect x="650" y="396" width="120" height="40" rx="20" fill="#DBEAFE" stroke="#93C5FD"/>
  <text x="684" y="422" fill="#1D4ED8" font-size="14" font-family="Arial">🍣 Giapponese</text>

  <!-- Restaurant cards row -->
  <text x="90" y="482" fill="#1E40AF" font-size="13" font-family="Arial" letter-spacing="2">RISTORANTI IN EVIDENZA</text>

  <!-- Card 1 -->
  <rect x="72" y="496" width="310" height="230" rx="20" fill="white" stroke="#BFDBFE" stroke-width="1.5"/>
  <rect x="72" y="496" width="310" height="120" rx="20" fill="#DBEAFE"/>
  <rect x="72" y="576" width="310" height="40" fill="#DBEAFE"/>
  <text x="108" y="546" fill="#1E40AF" font-size="30" font-family="Arial">🍜</text>
  <text x="96" y="644" fill="#0F1E3C" font-size="16" font-family="Georgia">Dragon Noodle House</text>
  <text x="96" y="668" fill="#64748B" font-size="13" font-family="Arial">Cucina cinese · Via Tortona 12</text>
  <rect x="96" y="686" width="60" height="20" rx="10" fill="#DBEAFE"/>
  <text x="107" y="701" fill="#1D4ED8" font-size="11" font-family="Arial">★ 4.8</text>

  <!-- Card 2 -->
  <rect x="400" y="496" width="310" height="230" rx="20" fill="white" stroke="#BFDBFE" stroke-width="1.5"/>
  <rect x="400" y="496" width="310" height="120" rx="20" fill="#EFF6FF"/>
  <rect x="400" y="576" width="310" height="40" fill="#EFF6FF"/>
  <text x="436" y="546" fill="#1D4ED8" font-size="30" font-family="Arial">🌮</text>
  <text x="424" y="644" fill="#0F1E3C" font-size="16" font-family="Georgia">El Rancho Taqueria</text>
  <text x="424" y="668" fill="#64748B" font-size="13" font-family="Arial">Cucina messicana · Corso Como 5</text>
  <rect x="424" y="686" width="60" height="20" rx="10" fill="#DBEAFE"/>
  <text x="435" y="701" fill="#1D4ED8" font-size="11" font-family="Arial">★ 4.6</text>

  <!-- Card 3 -->
  <rect x="728" y="496" width="310" height="230" rx="20" fill="white" stroke="#BFDBFE" stroke-width="1.5"/>
  <rect x="728" y="496" width="310" height="120" rx="20" fill="#DBEAFE"/>
  <rect x="728" y="576" width="310" height="40" fill="#DBEAFE"/>
  <text x="764" y="546" fill="#1E40AF" font-size="30" font-family="Arial">🫕</text>
  <text x="752" y="644" fill="#0F1E3C" font-size="16" font-family="Georgia">Beirut Kitchen</text>
  <text x="752" y="668" fill="#64748B" font-size="13" font-family="Arial">Cucina libanese · Via Savona 8</text>
  <rect x="752" y="686" width="60" height="20" rx="10" fill="#DBEAFE"/>
  <text x="763" y="701" fill="#1D4ED8" font-size="11" font-family="Arial">★ 4.9</text>
</svg>
