<svg width="1200" height="800" viewBox="0 0 1200 800" fill="none" xmlns="http://www.w3.org/2000/svg">
  <rect width="1200" height="800" rx="32" fill="#EAF6E7"/>
  <rect x="30" y="30" width="1140" height="740" rx="28" fill="#F7FFF2" stroke="#CFE7C4" stroke-width="2"/>
  <rect x="58" y="58" width="1084" height="70" rx="20" fill="#DFF0D7"/>
  <text x="94" y="102" fill="#4D6A52" font-size="28" font-family="Arial">METIME garden</text>
  <text x="878" y="102" fill="#6E8B73" font-size="16" font-family="Arial">SpriteKit island · plots · terrain expansions</text>

  <rect x="58" y="156" width="1084" height="560" rx="32" fill="#DDF0D0" stroke="#C5E2B7"/>
  <ellipse cx="600" cy="456" rx="300" ry="170" fill="#A9D68D"/>
  <ellipse cx="600" cy="470" rx="240" ry="126" fill="#8FC26F"/>
  <rect x="468" y="404" width="68" height="68" rx="14" fill="#8D6B4B"/>
  <rect x="548" y="390" width="68" height="68" rx="14" fill="#8D6B4B"/>
  <rect x="628" y="406" width="68" height="68" rx="14" fill="#8D6B4B"/>
  <rect x="708" y="392" width="68" height="68" rx="14" fill="#8D6B4B"/>
  <circle cx="510" cy="382" r="18" fill="#6FB56A"/>
  <circle cx="590" cy="366" r="18" fill="#6FB56A"/>
  <circle cx="670" cy="384" r="18" fill="#6FB56A"/>
  <circle cx="750" cy="368" r="18" fill="#6FB56A"/>
  <path d="M382 522 C448 486 506 486 576 522" stroke="#7FB06A" stroke-width="12" stroke-linecap="round"/>
  <path d="M626 522 C692 486 750 486 820 522" stroke="#7FB06A" stroke-width="12" stroke-linecap="round"/>
  <circle cx="356" cy="286" r="44" fill="#BDE3F8"/>
  <circle cx="334" cy="270" r="14" fill="#FFF" opacity="0.6"/>

  <rect x="82" y="182" width="176" height="170" rx="24" fill="#FFFDF8"/>
  <text x="112" y="224" fill="#4D6A52" font-size="20" font-family="Arial">Garden stats</text>
  <text x="112" y="266" fill="#6E8B73" font-size="18" font-family="Arial">Coin 240</text>
  <text x="112" y="298" fill="#6E8B73" font-size="18" font-family="Arial">Plot 4 / 8</text>
  <text x="112" y="330" fill="#6E8B73" font-size="18" font-family="Arial">Land 2 / 4</text>

  <rect x="854" y="562" width="236" height="112" rx="24" fill="#8CBF65"/>
  <text x="884" y="610" fill="white" font-size="18" font-family="Arial">Compra una nuova zolletta</text>
  <text x="884" y="638" fill="#EAF6E7" font-size="16" font-family="Arial">Espandi lo spazio coltivabile</text>
</svg>
