<svg width="1200" height="800" viewBox="0 0 1200 800" fill="none" xmlns="http://www.w3.org/2000/svg">
  <rect width="1200" height="800" rx="32" fill="#EFF6FF"/>
  <rect x="28" y="28" width="1144" height="744" rx="28" fill="white" stroke="#DBEAFE" stroke-width="2"/>
  <rect x="56" y="56" width="1088" height="74" rx="22" fill="#F8FBFF" stroke="#DBEAFE"/>
  <text x="96" y="102" fill="#1D4ED8" font-size="28" font-family="Arial">Explore</text>
  <text x="878" y="102" fill="#64748B" font-size="16" font-family="Arial">README · Mockups · Code map</text>

  <rect x="56" y="156" width="236" height="580" rx="24" fill="#F8FBFF" stroke="#DBEAFE"/>
  <text x="86" y="202" fill="#1E3A8A" font-size="22" font-family="Arial">Projects</text>
  <rect x="86" y="228" width="176" height="54" rx="16" fill="#1D4ED8"/>
  <rect x="86" y="298" width="176" height="54" rx="16" fill="#DBEAFE"/>
  <rect x="86" y="368" width="176" height="54" rx="16" fill="#DBEAFE"/>
  <text x="132" y="262" fill="white" font-size="18" font-family="Arial">Portfolio</text>
  <text x="122" y="332" fill="#1D4ED8" font-size="18" font-family="Arial">Angel</text>
  <text x="104" y="402" fill="#1D4ED8" font-size="18" font-family="Arial">Codex × Claude</text>

  <rect x="320" y="156" width="824" height="580" rx="24" fill="#F8FBFF" stroke="#DBEAFE"/>
  <text x="356" y="202" fill="#1E3A8A" font-size="24" font-family="Arial">Portfolio README</text>
  <rect x="356" y="228" width="752" height="210" rx="20" fill="white" stroke="#DBEAFE"/>
  <text x="388" y="274" fill="#1D4ED8" font-size="18" font-family="Arial">One-file portfolio with interactive sphere and in-page explore</text>
  <text x="388" y="312" fill="#475569" font-size="18" font-family="Arial">• custom cursor and animated navigation</text>
  <text x="388" y="344" fill="#475569" font-size="18" font-family="Arial">• responsive layout for hero, sphere and explore</text>
  <text x="388" y="376" fill="#475569" font-size="18" font-family="Arial">• local mockups and lightbox previews</text>

  <rect x="356" y="470" width="240" height="210" rx="20" fill="white" stroke="#DBEAFE"/>
  <rect x="632" y="470" width="240" height="210" rx="20" fill="white" stroke="#DBEAFE"/>
  <rect x="908" y="470" width="200" height="210" rx="20" fill="white" stroke="#DBEAFE"/>
  <text x="408" y="572" fill="#1D4ED8" font-size="18" font-family="Arial">Home mockup</text>
  <text x="682" y="572" fill="#1D4ED8" font-size="18" font-family="Arial">Explore mockup</text>
  <text x="942" y="572" fill="#1D4ED8" font-size="18" font-family="Arial">Code map</text>
</svg>
